<?xml version="1.0" standalone="no"?>
<!DOCTYPE svg PUBLIC "-//W3C//DTD SVG 20010904//EN"
 "http://www.w3.org/TR/2001/REC-SVG-20010904/DTD/svg10.dtd">
<svg version="1.0" xmlns="http://www.w3.org/2000/svg"
 width="150.000000pt" height="150.000000pt" viewBox="0 0 150.000000 150.000000"
 preserveAspectRatio="xMidYMid meet">
<metadata>
Created by potrace 1.11, written by Peter Selinger 2001-2013
</metadata>
<g transform="translate(0.000000,150.000000) scale(0.100000,-0.100000)"
fill="#000000" stroke="none">
<path d="M157 933 c-23 -12 -23 -18 -4 -42 9 -12 9 -13 0 -7 -16 9 -16 1 -2
-26 8 -15 8 -19 0 -14 -11 7 -6 -58 7 -78 3 -5 0 -6 -6 -2 -7 4 -12 3 -12 -3
0 -5 5 -13 10 -16 7 -4 7 -12 0 -25 -13 -25 -13 -33 3 -24 9 6 9 4 -1 -8 -9
-12 -10 -18 -2 -23 8 -5 8 -11 1 -19 -7 -9 -7 -17 2 -26 10 -10 9 -11 -2 -5
-9 5 -12 3 -9 -6 3 -8 18 -14 33 -14 l29 0 0 70 c1 65 3 70 24 73 18 3 22 -1
22 -22 0 -19 5 -26 19 -26 23 0 37 -18 33 -41 -2 -12 5 -16 24 -15 22 2 28 7
28 29 2 26 -8 32 -42 28 -22 -3 -7 43 17 49 12 3 22 8 22 13 -1 4 -1 14 -1 22
0 12 -15 15 -75 15 l-74 0 2 48 2 47 74 5 c59 4 75 8 77 22 1 9 -5 20 -14 23
-29 12 -162 11 -185 -2z"/>
<path d="M518 939 c-7 -4 -16 -5 -20 -3 -4 3 -4 -5 1 -18 8 -21 14 -23 81 -23
63 0 73 3 76 18 1 10 -4 21 -11 23 -22 9 -115 10 -127 3z"/>
<path d="M809 938 c-1 -5 -2 -13 -3 -20 0 -7 -12 -18 -26 -25 -21 -10 -25 -20
-26 -57 -1 -34 3 -45 16 -49 29 -8 37 6 35 58 l-1 50 69 -3 c73 -4 93 4 83 34
-5 16 -16 19 -76 19 -38 0 -71 -3 -71 -7z"/>
<path d="M1118 940 c-14 -4 -23 -13 -23 -25 0 -13 -7 -20 -20 -20 -17 0 -20
-8 -23 -56 -3 -53 -2 -56 20 -54 20 1 23 7 26 53 l3 52 75 0 c72 0 74 1 74 25
0 14 -3 25 -7 26 -36 4 -106 3 -125 -1z"/>
<path d="M959 897 c-6 -13 -4 -57 3 -58 36 -6 42 -3 42 20 0 16 -7 27 -22 32
-12 5 -22 7 -23 6z"/>
<path d="M1256 885 c-8 -9 -13 -22 -10 -30 9 -22 36 -27 53 -9 13 14 13 15 1
8 -13 -7 -13 -5 -2 8 11 14 10 18 -7 27 -15 8 -23 7 -35 -4z"/>
<path d="M352 838 c3 -45 6 -53 23 -53 22 0 33 32 27 78 -3 21 -10 27 -29 27
-23 0 -24 -3 -21 -52z"/>
<path d="M455 880 c3 -5 1 -10 -5 -10 -6 0 -8 -5 -4 -11 3 -6 6 -59 5 -118 0
-116 -3 -110 49 -102 3 1 5 57 5 126 l1 125 -29 0 c-16 0 -26 -4 -22 -10z"/>
<path d="M653 768 l1 -123 -75 -5 c-67 -5 -74 -7 -77 -27 -3 -22 -1 -23 77
-23 77 0 81 1 78 22 -1 14 4 23 13 24 8 0 20 2 25 2 6 1 10 51 10 127 l0 125
-27 0 -26 0 1 -122z"/>
<path d="M809 783 c0 -5 -2 -16 -4 -25 -4 -20 -5 -19 79 -20 63 0 80 9 70 35
-5 14 -20 17 -75 17 -38 0 -69 -3 -70 -7z"/>
<path d="M1097 770 c-7 -28 6 -33 84 -32 l68 1 -1 -37 c-1 -66 1 -72 22 -69
11 2 22 6 26 9 8 9 13 98 5 94 -15 -9 -51 15 -51 34 0 18 -6 20 -74 20 -65 0
-74 -2 -79 -20z"/>
<path d="M953 695 c0 -47 14 -69 39 -60 11 4 15 20 14 56 -1 46 -3 49 -27 49
-24 0 -26 -3 -26 -45z"/>
<path d="M759 695 c-1 0 -2 -12 -3 -27 -3 -30 19 -45 40 -27 22 18 14 54 -13
54 -13 0 -23 0 -24 0z"/>
<path d="M1054 685 c-10 -25 1 -50 21 -50 13 0 20 -7 20 -20 0 -18 8 -20 78
-23 77 -3 78 -2 75 20 -3 21 -9 23 -75 26 -69 3 -72 4 -75 29 -3 28 -35 41
-44 18z"/>
<path d="M357 634 c-4 -4 -7 -16 -7 -26 0 -13 7 -18 26 -18 21 0 25 4 22 22
-3 23 -27 35 -41 22z"/>
<path d="M802 615 c-2 -25 -1 -25 78 -25 78 0 80 0 78 24 -2 24 -5 24 -78 25
-73 0 -76 0 -78 -24z"/>
</g>
</svg>
